<svg xmlns="http://www.w3.org/2000/svg" viewBox="0 0 79.96 53.44"><defs><style>.cls-1{fill:#f20cd7;}</style></defs><title>mem1</title><g id="Layer_2" data-name="Layer 2"><g id="Layer_1-2" data-name="Layer 1"><path class="cls-1" d="M75.14,0H4.82A4.83,4.83,0,0,0,0,4.83V48.61a4.83,4.83,0,0,0,4.82,4.82H75.14A4.82,4.82,0,0,0,80,48.61V4.83A4.83,4.83,0,0,0,75.14,0M4.82,3.54H75.14a1.29,1.29,0,0,1,1.28,1.28v9.31H3.54V4.83A1.29,1.29,0,0,1,4.82,3.54M75.14,49.9H4.82a1.29,1.29,0,0,1-1.28-1.28V17.67H76.42V48.61a1.28,1.28,0,0,1-1.28,1.28"/><path class="cls-1" d="M31.95,21.77H10.06a1.77,1.77,0,0,0,0,3.54H31.95a1.77,1.77,0,0,0,0-3.54"/></g></g></svg>