<svg xmlns="http://www.w3.org/2000/svg" viewBox="0 0 78.84 79"><defs><style>.cls-1{fill:#f72409;}</style></defs><title>mem6</title><g id="Layer_2" data-name="Layer 2"><g id="Layer_1-2" data-name="Layer 1"><path class="cls-1" d="M69.78,27.32a30.44,30.44,0,0,0-60.57,0A9.75,9.75,0,0,0,0,37v6.91a9.9,9.9,0,0,0,9.88,9.88s2.3.16,2.47-1.65V30.45a27.16,27.16,0,0,1,54.31,0v34.4a5.48,5.48,0,0,1-5.43,5.43H50.53a7.21,7.21,0,0,0-6.91-5.43H35.22a7.08,7.08,0,0,0,0,14.16h8.39a7.07,7.07,0,0,0,6.91-5.43h10.7A8.5,8.5,0,0,0,69.78,65V53.82a9.83,9.83,0,0,0,9.05-9.71V37.2a9.53,9.53,0,0,0-9.05-9.87M9.05,47.24v3.13a6.47,6.47,0,0,1-5.76-6.58V36.87a6.71,6.71,0,0,1,5.76-6.58ZM43.78,75.71H35.39a3.79,3.79,0,0,1,0-7.57h8.39a3.83,3.83,0,0,1,3.79,3.79,3.72,3.72,0,0,1-3.79,3.79M75.71,43.94a6.71,6.71,0,0,1-5.76,6.58V30.45A6.47,6.47,0,0,1,75.71,37Z"/><path class="cls-1" d="M57.27,34.89a4.94,4.94,0,1,0-4.94,4.94,5.06,5.06,0,0,0,4.94-4.94m-6.75,0a1.65,1.65,0,1,1,1.65,1.65,1.77,1.77,0,0,1-1.65-1.65"/><path class="cls-1" d="M31.76,34.89a4.94,4.94,0,1,0-4.94,4.94,5.06,5.06,0,0,0,4.94-4.94m-6.75,0a1.65,1.65,0,1,1,1.65,1.65A1.77,1.77,0,0,1,25,34.89"/><path class="cls-1" d="M52.83,48.22a1.65,1.65,0,0,0-.49-2.31,1.62,1.62,0,0,0-2.3.49A13.11,13.11,0,0,1,39.5,52,12.66,12.66,0,0,1,29,46.41a1.67,1.67,0,1,0-2.8,1.81A16.15,16.15,0,0,0,39.5,55.13a16.61,16.61,0,0,0,13.33-6.91"/></g></g></svg>