<svg xmlns="http://www.w3.org/2000/svg" viewBox="0 0 78.71 92"><defs><style>.cls-1{fill:#ff9b24;}</style></defs><title>mem8</title><g id="Layer_2" data-name="Layer 2"><g id="Layer_9" data-name="Layer 9"><path class="cls-1" d="M40.89,6V1.53a1.53,1.53,0,1,0-3.07,0V6A39.4,39.4,0,0,0,0,45.34v.26s0,0,0,0,0,0,0,.05a2.26,2.26,0,0,0,.06.5,1.53,1.53,0,0,0,1.49,1.17,1.57,1.57,0,0,0,.36,0,1.53,1.53,0,0,0,1.15-1.69c0-5.23,5-9.49,11.07-9.49s11.07,4.26,11.07,9.5a1.53,1.53,0,0,0,3.07,0c0-.06,0-.13,0-.19s0-.07,0-.11c0-4.79,4.16-8.75,9.54-9.4V81.77a7.16,7.16,0,0,1-14.32,0,1.53,1.53,0,0,0-3.07,0,10.23,10.23,0,0,0,20.46,0V35.95c5.38.64,9.54,4.61,9.54,9.4A1.53,1.53,0,0,0,52,46.88h0a1.53,1.53,0,0,0,1.53-1.53c0-5.24,5-9.51,11.06-9.51s11.08,4.27,11.08,9.51a1.53,1.53,0,1,0,3.07,0A39.4,39.4,0,0,0,40.89,6M14.14,33.08A15,15,0,0,0,4.09,36.82,36.37,36.37,0,0,1,35.71,9.24c-5.4,3.52-9.29,14.8-9.9,29.33a14.69,14.69,0,0,0-11.67-5.48m25.22-.3A14.73,14.73,0,0,0,27.88,38c.83-17.36,6.34-27.91,11.47-27.91S50,20.68,50.83,38a14.73,14.73,0,0,0-11.47-5.25m25.21,0a14.66,14.66,0,0,0-11.68,5.51c-.65-14.39-4.52-25.54-9.88-29a36.38,36.38,0,0,1,31.53,27.2,15,15,0,0,0-10-3.67"/><polygon class="cls-1" points="78.13 63.92 68.25 63.92 68.25 54.09 58.26 54.09 58.26 63.92 48.39 63.92 48.39 73.95 58.26 73.95 58.26 83.83 68.25 83.83 68.25 73.95 78.13 73.95 78.13 63.92"/></g></g></svg>