<svg xmlns="http://www.w3.org/2000/svg" viewBox="0 0 90 90"><defs><style>.cls-1{fill:#0bc223;}</style></defs><title>mem2</title><g id="Layer_2" data-name="Layer 2"><g id="Layer_1-2" data-name="Layer 1"><path class="cls-1" d="M54,0a10,10,0,0,0-4.53,18.87l-4,15.84a14.77,14.77,0,0,0-13.72,2.47l-15.44-13a9.13,9.13,0,1,0-3,2.69L29,40.06a14.88,14.88,0,0,0,.13,18L18.94,68.25A11.88,11.88,0,0,0,12,66,12,12,0,1,0,24,78a11.89,11.89,0,0,0-2.25-6.94L31.91,60.91a14.91,14.91,0,0,0,21.25-3.19l15.06,7.13a11.08,11.08,0,1,0,1.47-3.66L55,54.22a14.45,14.45,0,0,0,.34-9.41l14.88-9.91A9,9,0,1,0,68,29a8.86,8.86,0,0,0,.31,2.34L53.72,41.09a15.22,15.22,0,0,0-4.53-4.66L53.31,20c.23,0,.46,0,.69,0A10,10,0,0,0,64,10,9.71,9.71,0,0,0,54,0m0,4a6,6,0,1,1-6,6,6,6,0,0,1,6-6M9,14a5,5,0,1,1-5,5,5,5,0,0,1,5-5M77,24a5,5,0,1,1-5,5,5,5,0,0,1,5-5M41,38A11,11,0,1,1,30,49,11,11,0,0,1,41,38M79,60a7,7,0,1,1-7,7,7,7,0,0,1,7-7M12,70a8,8,0,1,1-8,8,8,8,0,0,1,8-8"/></g></g></svg>