<svg xmlns="http://www.w3.org/2000/svg" viewBox="0 0 61.4 79.87"><defs><style>.cls-1{fill:#0b75f4;}</style></defs><title>mem3</title><g id="Layer_2" data-name="Layer 2"><g id="Layer_12" data-name="Layer 12"><path class="cls-1" d="M54.91,7.15H50.25V1.66A1.57,1.57,0,0,0,48.58,0h-7a1.57,1.57,0,0,0-1.66,1.66V7.15H21.63V1.66A1.57,1.57,0,0,0,20,0H13a1.57,1.57,0,0,0-1.66,1.66V7.15H6.66A6.68,6.68,0,0,0,0,13.81v59.4a6.68,6.68,0,0,0,6.66,6.66H54.74a6.68,6.68,0,0,0,6.66-6.66V13.81A6.43,6.43,0,0,0,54.91,7.15ZM43.26,3.33h3.66V8.82h0v4.49H43.26Zm-28.62,0H18.3V8.82h0v4.49H14.64ZM58.24,73.21a3.34,3.34,0,0,1-3.33,3.33H6.66a3.34,3.34,0,0,1-3.33-3.33V13.81a3.34,3.34,0,0,1,3.33-3.33h4.66V15A1.57,1.57,0,0,0,13,16.64h7a1,1,0,0,0,.67-.17,1.6,1.6,0,0,0,1-1.5V10.48h18.3V15a1.57,1.57,0,0,0,1.66,1.66h7a1,1,0,0,0,.67-.17,1.6,1.6,0,0,0,1-1.5V10.48h4.66a3.34,3.34,0,0,1,3.33,3.33Z"/><path class="cls-1" d="M22.79,26.79h6.32v6.32a1.66,1.66,0,0,0,3.33,0V26.79h6.32a1.66,1.66,0,1,0,0-3.33H32.45V17.14a1.66,1.66,0,0,0-3.33,0v6.32H22.79a1.57,1.57,0,0,0-1.66,1.66A1.79,1.79,0,0,0,22.79,26.79Z"/><path class="cls-1" d="M13,44.92H9.32a1.66,1.66,0,1,0,0,3.33H13a1.57,1.57,0,0,0,1.66-1.66A1.67,1.67,0,0,0,13,44.92Z"/><path class="cls-1" d="M52.25,44.92H21a1.66,1.66,0,1,0,0,3.33H52.25a1.57,1.57,0,0,0,1.66-1.66A1.79,1.79,0,0,0,52.25,44.92Z"/><path class="cls-1" d="M13,55.24H9.32a1.66,1.66,0,0,0,0,3.33H13a1.57,1.57,0,0,0,1.66-1.66A1.67,1.67,0,0,0,13,55.24Z"/><path class="cls-1" d="M52.25,55.24H21a1.66,1.66,0,1,0,0,3.33H52.25a1.57,1.57,0,0,0,1.66-1.66A1.79,1.79,0,0,0,52.25,55.24Z"/><path class="cls-1" d="M13,65.56H9.32a1.66,1.66,0,1,0,0,3.33H13a1.57,1.57,0,0,0,1.66-1.66A1.67,1.67,0,0,0,13,65.56Z"/><path class="cls-1" d="M52.25,65.56H21a1.66,1.66,0,1,0,0,3.33H52.25a1.57,1.57,0,0,0,1.66-1.66A1.79,1.79,0,0,0,52.25,65.56Z"/></g></g></svg>