<svg xmlns="http://www.w3.org/2000/svg" viewBox="0 0 86 86"><defs><style>.cls-1{opacity:0.65;}.cls-2{fill:#9e0cd7;}</style></defs><title>mem4</title><g id="Layer_2" data-name="Layer 2"><g id="Layer_1-2" data-name="Layer 1"><g class="cls-1"><path class="cls-2" d="M43,0A43,43,0,1,0,86,43,43,43,0,0,0,43,0ZM42,2.06V21H25.25a47.61,47.61,0,0,1,3-7.25C31.84,7.33,36.22,2.63,42,2.06Zm2,0c5.31.48,10.12,4.71,13.75,11.69a47.61,47.61,0,0,1,3,7.25H44Zm-9.44.81a27.85,27.85,0,0,0-8.09,9.94A50.3,50.3,0,0,0,23.16,21H8.41A41,41,0,0,1,34.56,2.88Zm16.88,0A41,41,0,0,1,77.59,21H62.84a50.3,50.3,0,0,0-3.31-8.19A27.85,27.85,0,0,0,51.44,2.88ZM7.19,23H22.56A75.63,75.63,0,0,0,20,42H2A40.8,40.8,0,0,1,7.19,23Zm17.47,0H42V42H22A73.16,73.16,0,0,1,24.66,23ZM44,23H61.34A73.16,73.16,0,0,1,64,42H44Zm19.44,0H78.81A40.8,40.8,0,0,1,84,42H66A75.63,75.63,0,0,0,63.44,23ZM2,44H20a75.24,75.24,0,0,0,2.59,19H7.19A40.8,40.8,0,0,1,2,44Zm20,0H42V63H24.66A73.08,73.08,0,0,1,22,44Zm22,0H64a73.08,73.08,0,0,1-2.66,19H44Zm22,0H84a40.8,40.8,0,0,1-5.16,19H63.41A75.24,75.24,0,0,0,66,44ZM8.41,65H23.16a50.41,50.41,0,0,0,3.31,8.16,27.85,27.85,0,0,0,8.16,10A41,41,0,0,1,8.41,65Zm16.88,0H42V83.94c-5.31-.48-10.12-4.74-13.75-11.72A47.81,47.81,0,0,1,25.28,65ZM44,65H60.72a47.82,47.82,0,0,1-3,7.22c-3.63,7-8.44,11.24-13.75,11.72Zm18.84,0H77.59A41,41,0,0,1,51.38,83.13a27.85,27.85,0,0,0,8.16-10A50.4,50.4,0,0,0,62.84,65Z"/></g></g></g></svg>