<svg xmlns="http://www.w3.org/2000/svg" viewBox="0 0 68.35 68.35"><defs><style>.cls-1{fill:#6dacf8;}</style></defs><title>mem5</title><g id="Layer_2" data-name="Layer 2"><g id="Layer_12" data-name="Layer 12"><path class="cls-1" d="M47,0H4.27A4.27,4.27,0,0,0,0,4.27V47a4.27,4.27,0,0,0,4.27,4.27H47A4.27,4.27,0,0,0,51.26,47V4.27A4.27,4.27,0,0,0,47,0ZM45,45H6.26V6.26H45Z"/><path class="cls-1" d="M64.08,68.35H21.36a4.27,4.27,0,0,1-4.27-4.27V55.54h8.54v4.27H59.81V25.63H55.54V17.09h8.54a4.27,4.27,0,0,1,4.27,4.27V64.08A4.27,4.27,0,0,1,64.08,68.35Z"/><path class="cls-1" d="M25.63,47H17.09V21.36a4.27,4.27,0,0,1,4.27-4.27H47v8.54H25.63Z"/></g></g></svg>