<svg xmlns="http://www.w3.org/2000/svg" viewBox="0 0 82 81.9"><defs><style>.cls-1{fill:none;stroke:#0bc223;stroke-linecap:round;stroke-linejoin:round;stroke-width:2px;}</style></defs><title>mem9</title><g id="Layer_2" data-name="Layer 2"><g id="Layer_1-2" data-name="Layer 1"><path class="cls-1" d="M76.8,18.5a13.44,13.44,0,0,0,1.4-1.1A9.52,9.52,0,0,0,81,10.6,9.62,9.62,0,0,0,64.6,3.8a4.81,4.81,0,0,0-.9,1.1,10.63,10.63,0,0,0-.9-1.1A9.62,9.62,0,0,0,49.2,17.4a9.64,9.64,0,0,0,6.4,2.8L41,34.75,34.76,41,1,74.6l6.3,6.3,5.2-5.2,5.2,5.2L33.4,65.2,28.2,60,41,47.2,47.24,41,60.7,27.5a9.12,9.12,0,0,0,2.7,5.1A9.62,9.62,0,0,0,77,19,.59.59,0,0,0,76.8,18.5Z"/><path class="cls-1" d="M67.84,7.67a4.41,4.41,0,0,1,7.54,3.14,4.35,4.35,0,0,1-1.27,3.14,4.4,4.4,0,0,1-6.19,0A4.28,4.28,0,0,1,67.84,7.67Z"/><path class="cls-1" d="M52.87,7.67a4.41,4.41,0,0,1,7.54,3.14,4.35,4.35,0,0,1-1.27,3.14,4.43,4.43,0,0,1-6.27-6.27Z"/><path class="cls-1" d="M73.32,29a4.37,4.37,0,0,1-6.19-6.19A4.41,4.41,0,0,1,74.68,26,5.27,5.27,0,0,1,73.32,29Z"/><path class="cls-1" d="M41,34.75,26.4,20.2a9.64,9.64,0,0,0,6.4-2.8A9.62,9.62,0,0,0,19.2,3.8a10.63,10.63,0,0,0-.9,1.1,4.81,4.81,0,0,0-.9-1.1A9.52,9.52,0,0,0,10.6,1,9.56,9.56,0,0,0,1,10.6a9.52,9.52,0,0,0,2.8,6.8,13.44,13.44,0,0,0,1.4,1.1A.59.59,0,0,0,5,19a9.6,9.6,0,0,0,6.8,16.4,9.52,9.52,0,0,0,6.8-2.8,9.12,9.12,0,0,0,2.7-5.1L34.77,41"/><polyline class="cls-1" points="41 47.2 53.8 60 48.6 65.2 64.3 80.9 69.5 75.7 74.7 80.9 81 74.6 47.24 40.96"/><path class="cls-1" d="M14.07,13.94a4.4,4.4,0,0,1-6.19,0,4.35,4.35,0,0,1-1.27-3.14A4.34,4.34,0,0,1,11,6.4a4.35,4.35,0,0,1,3.14,1.27A4.28,4.28,0,0,1,14.07,13.94Z"/><path class="cls-1" d="M29,13.94a4.4,4.4,0,0,1-6.19,0,4.35,4.35,0,0,1-1.27-3.14,4.43,4.43,0,0,1,7.54-3.14A4.43,4.43,0,0,1,29,13.94Z"/><path class="cls-1" d="M7.32,26a4.43,4.43,0,0,1,7.54-3.14A4.37,4.37,0,0,1,8.68,29,5.27,5.27,0,0,1,7.32,26Z"/></g></g></svg>